# xmcd
#
# Track frame offsets:
#	150
#	12595
#	22042
#	35585
#	49720
#	62095
#	77010
#	88775
#	100177
#	112557
#
# Disc length: 1660 seconds
#
# Revision: 4
# Processed by: cddbd v1.5.2PL0 Copyright (c) Steve Scherf et al.
# Submitted via: EZCDAudioConverter 6.0.5.1
#
DISCID=74067a0a
DTITLE=Johnny Paycheck - Take This Job And Shove It
DYEAR=1992
DGENRE=Country
TTITLE0=Take This Job And Shove It
TTITLE1=Mr. Lovemaker
TTITLE2=Slide Off Your Satin Sheets
TTITLE3=I'm the Only Hell (Momma Ever Raised)
TTITLE4=She's All I've Got
TTITLE5=Someone To Give My Love To
TTITLE6=For A Minute There
TTITLE7=The Lovin' Machine
TTITLE8=Song And Dance Man
TTITLE9=Something About You I Love
EXTD=
EXTT0=
EXTT1=
EXTT2=
EXTT3=
EXTT4=
EXTT5=
EXTT6=
EXTT7=
EXTT8=
EXTT9=
PLAYORDER=
